<mxfile host="app.diagrams.net" agent="Mozilla/5.0 (Windows NT 10.0; Win64; x64) AppleWebKit/537.36 (KHTML, like Gecko) Chrome/129.0.0.0 Safari/537.36 Edg/129.0.0.0" version="24.7.14">
  <diagram name="Страница — 1" id="M1HghCn4YKjkYwrpOd66">
    <mxGraphModel dx="1426" dy="761" grid="1" gridSize="10" guides="1" tooltips="1" connect="1" arrows="1" fold="1" page="1" pageScale="1" pageWidth="1200" pageHeight="1920" math="0" shadow="0">
      <root>
        <mxCell id="0" />
        <mxCell id="1" parent="0" />
        <mxCell id="EZnIjQxR5QOd-Zp8crl6-2" value="Исток&lt;br&gt;(начало рассмотрения процесса)" style="ellipse;whiteSpace=wrap;html=1;aspect=fixed;" vertex="1" parent="1">
          <mxGeometry x="262.5" y="260" width="110" height="110" as="geometry" />
        </mxCell>
        <mxCell id="EZnIjQxR5QOd-Zp8crl6-3" value="Исходная страница, контактная информация не отображается" style="ellipse;whiteSpace=wrap;html=1;aspect=fixed;" vertex="1" parent="1">
          <mxGeometry x="262.5" y="400" width="110" height="110" as="geometry" />
        </mxCell>
        <mxCell id="EZnIjQxR5QOd-Zp8crl6-4" value="" style="endArrow=classic;html=1;rounded=0;exitX=0.5;exitY=1;exitDx=0;exitDy=0;entryX=0.5;entryY=0;entryDx=0;entryDy=0;" edge="1" parent="1" source="EZnIjQxR5QOd-Zp8crl6-2" target="EZnIjQxR5QOd-Zp8crl6-3">
          <mxGeometry width="50" height="50" relative="1" as="geometry">
            <mxPoint x="400" y="550" as="sourcePoint" />
            <mxPoint x="450" y="500" as="targetPoint" />
          </mxGeometry>
        </mxCell>
        <mxCell id="EZnIjQxR5QOd-Zp8crl6-5" value="" style="triangle;whiteSpace=wrap;html=1;rotation=90;fillColor=#121212;" vertex="1" parent="1">
          <mxGeometry x="307.5" y="260" width="20" height="20" as="geometry" />
        </mxCell>
        <mxCell id="EZnIjQxR5QOd-Zp8crl6-7" style="edgeStyle=orthogonalEdgeStyle;rounded=0;orthogonalLoop=1;jettySize=auto;html=1;exitX=0;exitY=0.75;exitDx=0;exitDy=0;entryX=0.5;entryY=1;entryDx=0;entryDy=0;" edge="1" parent="1" source="EZnIjQxR5QOd-Zp8crl6-5" target="EZnIjQxR5QOd-Zp8crl6-5">
          <mxGeometry relative="1" as="geometry" />
        </mxCell>
        <mxCell id="EZnIjQxR5QOd-Zp8crl6-8" value="" style="ellipse;whiteSpace=wrap;html=1;aspect=fixed;fillColor=#121212;" vertex="1" parent="1">
          <mxGeometry x="307.5" y="400" width="20" height="20" as="geometry" />
        </mxCell>
        <mxCell id="EZnIjQxR5QOd-Zp8crl6-9" value="Наведение&amp;nbsp; курсора, на &quot;контактную информацию&quot;" style="ellipse;whiteSpace=wrap;html=1;aspect=fixed;" vertex="1" parent="1">
          <mxGeometry x="450" y="400" width="110" height="110" as="geometry" />
        </mxCell>
        <mxCell id="EZnIjQxR5QOd-Zp8crl6-10" value="" style="whiteSpace=wrap;html=1;aspect=fixed;fillColor=#121212;" vertex="1" parent="1">
          <mxGeometry x="495" y="400" width="20" height="20" as="geometry" />
        </mxCell>
        <mxCell id="EZnIjQxR5QOd-Zp8crl6-19" value="Отображается контактная информация" style="ellipse;whiteSpace=wrap;html=1;aspect=fixed;" vertex="1" parent="1">
          <mxGeometry x="350" y="600" width="110" height="110" as="geometry" />
        </mxCell>
        <mxCell id="EZnIjQxR5QOd-Zp8crl6-20" value="" style="ellipse;whiteSpace=wrap;html=1;aspect=fixed;fillColor=#121212;" vertex="1" parent="1">
          <mxGeometry x="395" y="600" width="20" height="20" as="geometry" />
        </mxCell>
        <mxCell id="EZnIjQxR5QOd-Zp8crl6-21" value="Отведение курсора с &quot;контактной информации&quot;" style="ellipse;whiteSpace=wrap;html=1;aspect=fixed;" vertex="1" parent="1">
          <mxGeometry x="560" y="600" width="110" height="110" as="geometry" />
        </mxCell>
        <mxCell id="EZnIjQxR5QOd-Zp8crl6-22" value="" style="whiteSpace=wrap;html=1;aspect=fixed;fillColor=#121212;" vertex="1" parent="1">
          <mxGeometry x="605" y="600" width="20" height="20" as="geometry" />
        </mxCell>
        <mxCell id="EZnIjQxR5QOd-Zp8crl6-23" value="Сток (завершение рассмотрения процесса)" style="ellipse;whiteSpace=wrap;html=1;aspect=fixed;" vertex="1" parent="1">
          <mxGeometry x="262.5" y="780" width="110" height="110" as="geometry" />
        </mxCell>
        <mxCell id="EZnIjQxR5QOd-Zp8crl6-24" value="" style="triangle;whiteSpace=wrap;html=1;rotation=-90;fillColor=#121212;" vertex="1" parent="1">
          <mxGeometry x="307.5" y="790" width="20" height="20" as="geometry" />
        </mxCell>
        <mxCell id="EZnIjQxR5QOd-Zp8crl6-25" style="edgeStyle=orthogonalEdgeStyle;rounded=0;orthogonalLoop=1;jettySize=auto;html=1;exitX=0;exitY=0.75;exitDx=0;exitDy=0;entryX=0.5;entryY=1;entryDx=0;entryDy=0;" edge="1" parent="1" source="EZnIjQxR5QOd-Zp8crl6-24" target="EZnIjQxR5QOd-Zp8crl6-24">
          <mxGeometry relative="1" as="geometry" />
        </mxCell>
        <mxCell id="EZnIjQxR5QOd-Zp8crl6-29" style="edgeStyle=orthogonalEdgeStyle;rounded=0;orthogonalLoop=1;jettySize=auto;html=1;exitX=0;exitY=0.5;exitDx=0;exitDy=0;entryX=1;entryY=0.5;entryDx=0;entryDy=0;" edge="1" parent="1" source="EZnIjQxR5QOd-Zp8crl6-27" target="EZnIjQxR5QOd-Zp8crl6-23">
          <mxGeometry relative="1" as="geometry" />
        </mxCell>
        <mxCell id="EZnIjQxR5QOd-Zp8crl6-27" value="Контактная информация не отображается" style="ellipse;whiteSpace=wrap;html=1;aspect=fixed;" vertex="1" parent="1">
          <mxGeometry x="450" y="780" width="110" height="110" as="geometry" />
        </mxCell>
        <mxCell id="EZnIjQxR5QOd-Zp8crl6-28" value="" style="ellipse;whiteSpace=wrap;html=1;aspect=fixed;fillColor=#121212;" vertex="1" parent="1">
          <mxGeometry x="495" y="790" width="20" height="20" as="geometry" />
        </mxCell>
        <mxCell id="EZnIjQxR5QOd-Zp8crl6-35" value="" style="endArrow=none;html=1;rounded=0;strokeWidth=2;" edge="1" parent="1">
          <mxGeometry width="50" height="50" relative="1" as="geometry">
            <mxPoint x="372.5" y="560" as="sourcePoint" />
            <mxPoint x="432.5" y="560" as="targetPoint" />
          </mxGeometry>
        </mxCell>
        <mxCell id="EZnIjQxR5QOd-Zp8crl6-38" value="" style="endArrow=classic;html=1;rounded=0;exitX=0.5;exitY=1;exitDx=0;exitDy=0;" edge="1" parent="1" source="EZnIjQxR5QOd-Zp8crl6-9">
          <mxGeometry width="50" height="50" relative="1" as="geometry">
            <mxPoint x="690" y="420" as="sourcePoint" />
            <mxPoint x="400" y="560" as="targetPoint" />
            <Array as="points" />
          </mxGeometry>
        </mxCell>
        <mxCell id="EZnIjQxR5QOd-Zp8crl6-39" value="" style="endArrow=classic;html=1;rounded=0;exitX=0.5;exitY=1;exitDx=0;exitDy=0;" edge="1" parent="1" source="EZnIjQxR5QOd-Zp8crl6-3">
          <mxGeometry width="50" height="50" relative="1" as="geometry">
            <mxPoint x="480" y="450" as="sourcePoint" />
            <mxPoint x="400" y="560" as="targetPoint" />
          </mxGeometry>
        </mxCell>
        <mxCell id="EZnIjQxR5QOd-Zp8crl6-40" value="" style="endArrow=classic;html=1;rounded=0;" edge="1" parent="1">
          <mxGeometry width="50" height="50" relative="1" as="geometry">
            <mxPoint x="400" y="560" as="sourcePoint" />
            <mxPoint x="400" y="600" as="targetPoint" />
          </mxGeometry>
        </mxCell>
        <mxCell id="EZnIjQxR5QOd-Zp8crl6-42" value="" style="endArrow=none;html=1;rounded=0;strokeWidth=2;" edge="1" parent="1">
          <mxGeometry width="50" height="50" relative="1" as="geometry">
            <mxPoint x="475" y="750" as="sourcePoint" />
            <mxPoint x="535" y="750" as="targetPoint" />
          </mxGeometry>
        </mxCell>
        <mxCell id="EZnIjQxR5QOd-Zp8crl6-43" value="" style="endArrow=classic;html=1;rounded=0;exitX=0.5;exitY=1;exitDx=0;exitDy=0;" edge="1" parent="1" source="EZnIjQxR5QOd-Zp8crl6-19">
          <mxGeometry width="50" height="50" relative="1" as="geometry">
            <mxPoint x="490" y="710" as="sourcePoint" />
            <mxPoint x="500" y="750" as="targetPoint" />
            <Array as="points" />
          </mxGeometry>
        </mxCell>
        <mxCell id="EZnIjQxR5QOd-Zp8crl6-44" value="" style="endArrow=classic;html=1;rounded=0;exitX=0.5;exitY=1;exitDx=0;exitDy=0;" edge="1" parent="1" source="EZnIjQxR5QOd-Zp8crl6-21">
          <mxGeometry width="50" height="50" relative="1" as="geometry">
            <mxPoint x="480" y="650" as="sourcePoint" />
            <mxPoint x="500" y="750" as="targetPoint" />
          </mxGeometry>
        </mxCell>
        <mxCell id="EZnIjQxR5QOd-Zp8crl6-45" value="" style="endArrow=classic;html=1;rounded=0;" edge="1" parent="1">
          <mxGeometry width="50" height="50" relative="1" as="geometry">
            <mxPoint x="500" y="750" as="sourcePoint" />
            <mxPoint x="500" y="780" as="targetPoint" />
          </mxGeometry>
        </mxCell>
        <mxCell id="EZnIjQxR5QOd-Zp8crl6-47" value="" style="triangle;whiteSpace=wrap;html=1;rotation=90;fillColor=#121212;" vertex="1" parent="1">
          <mxGeometry x="10" y="160" width="20" height="20" as="geometry" />
        </mxCell>
        <mxCell id="EZnIjQxR5QOd-Zp8crl6-48" value="Начало процесса" style="text;html=1;align=center;verticalAlign=middle;resizable=0;points=[];autosize=1;strokeColor=none;fillColor=none;" vertex="1" parent="1">
          <mxGeometry x="40" y="155" width="120" height="30" as="geometry" />
        </mxCell>
        <mxCell id="EZnIjQxR5QOd-Zp8crl6-49" value="" style="ellipse;whiteSpace=wrap;html=1;aspect=fixed;fillColor=#121212;" vertex="1" parent="1">
          <mxGeometry x="10" y="210" width="20" height="20" as="geometry" />
        </mxCell>
        <mxCell id="EZnIjQxR5QOd-Zp8crl6-50" value="Устойчивое состояние" style="text;html=1;align=center;verticalAlign=middle;resizable=0;points=[];autosize=1;strokeColor=none;fillColor=none;" vertex="1" parent="1">
          <mxGeometry x="25" y="205" width="150" height="30" as="geometry" />
        </mxCell>
        <mxCell id="EZnIjQxR5QOd-Zp8crl6-51" value="" style="whiteSpace=wrap;html=1;aspect=fixed;fillColor=#121212;" vertex="1" parent="1">
          <mxGeometry x="10" y="260" width="20" height="20" as="geometry" />
        </mxCell>
        <mxCell id="EZnIjQxR5QOd-Zp8crl6-52" value="Метод/процесс/действие" style="text;html=1;align=center;verticalAlign=middle;resizable=0;points=[];autosize=1;strokeColor=none;fillColor=none;" vertex="1" parent="1">
          <mxGeometry x="40" y="255" width="160" height="30" as="geometry" />
        </mxCell>
        <mxCell id="EZnIjQxR5QOd-Zp8crl6-53" value="" style="triangle;whiteSpace=wrap;html=1;rotation=-90;fillColor=#121212;" vertex="1" parent="1">
          <mxGeometry x="10" y="310" width="20" height="20" as="geometry" />
        </mxCell>
        <mxCell id="EZnIjQxR5QOd-Zp8crl6-54" value="Окончание процесса" style="text;html=1;align=center;verticalAlign=middle;resizable=0;points=[];autosize=1;strokeColor=none;fillColor=none;" vertex="1" parent="1">
          <mxGeometry x="40" y="305" width="140" height="30" as="geometry" />
        </mxCell>
      </root>
    </mxGraphModel>
  </diagram>
</mxfile>
